<mxfile host="app.diagrams.net" modified="2023-11-04T12:28:37.479Z" agent="Mozilla/5.0 (Windows NT 6.3; Win64; x64) AppleWebKit/537.36 (KHTML, like Gecko) Chrome/109.0.0.0 Safari/537.36" etag="neULYcopo8kcpOSz9TkT" version="22.0.8" type="google">
  <diagram name="Strona-1" id="9SoIb9FUEHqM-KKjMy9F">
    <mxGraphModel grid="1" page="1" gridSize="10" guides="1" tooltips="1" connect="1" arrows="1" fold="1" pageScale="1" pageWidth="827" pageHeight="1169" math="0" shadow="0">
      <root>
        <mxCell id="0" />
        <mxCell id="1" parent="0" />
        <mxCell id="DvBfzxKJWGOs7OR17uTi-2" value="1. Narysuj schemat blokowy algorytmu który pobiera od użytkownika liczbę i sprawdza czy ta liczba&#xa;jest parzysta. Napisz pseudokod tego algorytmu." style="text;whiteSpace=wrap;html=1;" vertex="1" parent="1">
          <mxGeometry x="10" y="10" width="560" height="70" as="geometry" />
        </mxCell>
        <mxCell id="DvBfzxKJWGOs7OR17uTi-4" value="START" style="ellipse;whiteSpace=wrap;html=1;strokeWidth=2;" vertex="1" parent="1">
          <mxGeometry x="320" y="80" width="120" height="80" as="geometry" />
        </mxCell>
        <mxCell id="DvBfzxKJWGOs7OR17uTi-5" value="wczytaj (a)" style="shape=parallelogram;perimeter=parallelogramPerimeter;whiteSpace=wrap;html=1;fixedSize=1;strokeWidth=2;" vertex="1" parent="1">
          <mxGeometry x="300" y="200" width="160" height="60" as="geometry" />
        </mxCell>
        <mxCell id="DvBfzxKJWGOs7OR17uTi-6" value="" style="endArrow=classic;html=1;rounded=0;exitX=0.5;exitY=1;exitDx=0;exitDy=0;entryX=0.5;entryY=0;entryDx=0;entryDy=0;" edge="1" parent="1" source="DvBfzxKJWGOs7OR17uTi-4" target="DvBfzxKJWGOs7OR17uTi-5">
          <mxGeometry width="50" height="50" relative="1" as="geometry">
            <mxPoint x="390" y="320" as="sourcePoint" />
            <mxPoint x="380" y="190" as="targetPoint" />
          </mxGeometry>
        </mxCell>
        <mxCell id="DvBfzxKJWGOs7OR17uTi-8" value="jeśli:&lt;br&gt;mod(a) == 0&amp;nbsp;" style="strokeWidth=2;html=1;shape=mxgraph.flowchart.decision;whiteSpace=wrap;" vertex="1" parent="1">
          <mxGeometry x="275" y="330" width="210" height="100" as="geometry" />
        </mxCell>
        <mxCell id="DvBfzxKJWGOs7OR17uTi-9" value="" style="endArrow=classic;html=1;rounded=0;exitX=0.5;exitY=1;exitDx=0;exitDy=0;entryX=0.5;entryY=0;entryDx=0;entryDy=0;entryPerimeter=0;" edge="1" parent="1" source="DvBfzxKJWGOs7OR17uTi-5" target="DvBfzxKJWGOs7OR17uTi-8">
          <mxGeometry width="50" height="50" relative="1" as="geometry">
            <mxPoint x="390" y="320" as="sourcePoint" />
            <mxPoint x="440" y="270" as="targetPoint" />
          </mxGeometry>
        </mxCell>
        <mxCell id="DvBfzxKJWGOs7OR17uTi-10" value="" style="endArrow=classic;html=1;rounded=0;exitX=1;exitY=0.5;exitDx=0;exitDy=0;exitPerimeter=0;" edge="1" parent="1" source="DvBfzxKJWGOs7OR17uTi-8">
          <mxGeometry width="50" height="50" relative="1" as="geometry">
            <mxPoint x="390" y="330" as="sourcePoint" />
            <mxPoint x="560" y="480" as="targetPoint" />
            <Array as="points">
              <mxPoint x="560" y="380" />
            </Array>
          </mxGeometry>
        </mxCell>
        <mxCell id="DvBfzxKJWGOs7OR17uTi-13" value="PRAWDA" style="edgeLabel;html=1;align=center;verticalAlign=middle;resizable=0;points=[];" connectable="0" vertex="1" parent="DvBfzxKJWGOs7OR17uTi-10">
          <mxGeometry x="0.2457" relative="1" as="geometry">
            <mxPoint as="offset" />
          </mxGeometry>
        </mxCell>
        <mxCell id="DvBfzxKJWGOs7OR17uTi-11" value="" style="endArrow=classic;html=1;rounded=0;" edge="1" parent="1" source="DvBfzxKJWGOs7OR17uTi-8">
          <mxGeometry width="50" height="50" relative="1" as="geometry">
            <mxPoint x="390" y="330" as="sourcePoint" />
            <mxPoint x="200" y="480" as="targetPoint" />
            <Array as="points">
              <mxPoint x="270" y="380" />
              <mxPoint x="200" y="380" />
            </Array>
          </mxGeometry>
        </mxCell>
        <mxCell id="DvBfzxKJWGOs7OR17uTi-12" value="FAŁSZ" style="edgeLabel;html=1;align=center;verticalAlign=middle;resizable=0;points=[];" connectable="0" vertex="1" parent="DvBfzxKJWGOs7OR17uTi-11">
          <mxGeometry x="0.3486" y="-3" relative="1" as="geometry">
            <mxPoint as="offset" />
          </mxGeometry>
        </mxCell>
        <mxCell id="DvBfzxKJWGOs7OR17uTi-16" value="Wypisz &lt;br&gt;NIEPARZYSTA" style="shape=parallelogram;html=1;strokeWidth=2;perimeter=parallelogramPerimeter;whiteSpace=wrap;rounded=1;arcSize=12;size=0.23;" vertex="1" parent="1">
          <mxGeometry x="130" y="480" width="130" height="60" as="geometry" />
        </mxCell>
        <mxCell id="DvBfzxKJWGOs7OR17uTi-17" value="Wypisz &lt;br&gt;PARZYSTA" style="shape=parallelogram;html=1;strokeWidth=2;perimeter=parallelogramPerimeter;whiteSpace=wrap;rounded=1;arcSize=12;size=0.23;" vertex="1" parent="1">
          <mxGeometry x="490" y="480" width="130" height="60" as="geometry" />
        </mxCell>
        <mxCell id="DvBfzxKJWGOs7OR17uTi-25" value="" style="endArrow=none;html=1;rounded=0;exitX=0.408;exitY=0.983;exitDx=0;exitDy=0;exitPerimeter=0;entryX=0.5;entryY=1;entryDx=0;entryDy=0;" edge="1" parent="1" source="DvBfzxKJWGOs7OR17uTi-16" target="DvBfzxKJWGOs7OR17uTi-17">
          <mxGeometry width="50" height="50" relative="1" as="geometry">
            <mxPoint x="390" y="490" as="sourcePoint" />
            <mxPoint x="440" y="440" as="targetPoint" />
            <Array as="points">
              <mxPoint x="183" y="600" />
              <mxPoint x="380" y="600" />
              <mxPoint x="555" y="600" />
            </Array>
          </mxGeometry>
        </mxCell>
        <mxCell id="DvBfzxKJWGOs7OR17uTi-26" value="" style="endArrow=classic;html=1;rounded=0;" edge="1" parent="1">
          <mxGeometry width="50" height="50" relative="1" as="geometry">
            <mxPoint x="390" y="600" as="sourcePoint" />
            <mxPoint x="390" y="650" as="targetPoint" />
          </mxGeometry>
        </mxCell>
        <mxCell id="DvBfzxKJWGOs7OR17uTi-27" value="STOP" style="ellipse;whiteSpace=wrap;html=1;strokeWidth=2;" vertex="1" parent="1">
          <mxGeometry x="330" y="650" width="120" height="80" as="geometry" />
        </mxCell>
        <mxCell id="DvBfzxKJWGOs7OR17uTi-28" value="wprowadź a&lt;br&gt;&lt;div style=&quot;&quot;&gt;&lt;span style=&quot;background-color: initial;&quot;&gt;jeśli&amp;nbsp; a mod 2 == 0&lt;/span&gt;&lt;/div&gt;&lt;div style=&quot;&quot;&gt;&lt;span style=&quot;background-color: initial;&quot;&gt;&lt;span style=&quot;white-space: pre;&quot;&gt;&#x9;&lt;/span&gt;wyświetl jest parzysta&lt;br&gt;&lt;/span&gt;&lt;/div&gt;&lt;div style=&quot;&quot;&gt;&lt;span style=&quot;background-color: initial;&quot;&gt;w przeciwnym razie&amp;nbsp;&lt;/span&gt;&lt;/div&gt;&lt;div style=&quot;&quot;&gt;&lt;span style=&quot;background-color: initial;&quot;&gt;&lt;span style=&quot;white-space: pre;&quot;&gt;&#x9;&lt;/span&gt;wyświetl jest nieparazysta&lt;br&gt;&lt;/span&gt;&lt;/div&gt;" style="whiteSpace=wrap;html=1;aspect=fixed;align=left;" vertex="1" parent="1">
          <mxGeometry x="600" y="40" width="200" height="200" as="geometry" />
        </mxCell>
      </root>
    </mxGraphModel>
  </diagram>
</mxfile>
